# xmcd
#
# Track frame offsets:
#	150
#	13525
#	28050
#	44372
#	55645
#	74590
#	88997
#	99805
#	113295
#	142600
#	156375
#	168415
#	181260
#	193342
#	207587
#	224767
#	238095
#	250375
#	262872
#
# Disc length: 3677 seconds
#
# Revision: 0
# Processed by: cddbd v1.4PL0 Copyright (c) Steve Scherf et al.
# Submitted via: dBpowerAMP V4.0
#
DISCID=0e0e5b13
DTITLE=Clooney, Rosemary - Memories Of You
DYEAR=1900
DGENRE=
TTITLE0=It's Bad For Me (with Benny Goodman)
TTITLE1=Good Bye (with Benny Goodman)
TTITLE2=Memories Of You (with Benny Goodman)
TTITLE3=Me And You (with Duke Ellington)
TTITLE4=Grievin' (with Duke Ellington)
TTITLE5=I'm Checkin' Out - Goombye (with Duke Ellington)
TTITLE6=Blue Rose (with Duke Ellington)
TTITLE7=Sophisticated Laday (with Duke Ellington)
TTITLE8=Mood Indigo (with Duke Ellington)
TTITLE9=If You Were In My Place (What Would You Do?) (With Duke Ellington)
TTITLE10=I Let A Song Go Out Of My Heart (with Duke Ellington)
TTITLE11=It Don't Mean A Thing (If It Ain't Got That Swing) (with Duke Ellington)
TTITLE12=Just A Sittin' And A-Rockin' (with Duke Ellington)
TTITLE13=I Got It Bad (with Duke Ellington)
TTITLE14=Hey, Baby (with Duke Ellington)
TTITLE15=I'm Going Home (with New Orleans Jazz Band)
TTITLE16=Bourbon Street Parade (with New Orleans Jazz Band)
TTITLE17=A Good Man Is Hard To Find (with New Orleans Jazz Band)
TTITLE18=You Cooked Your Goose With Me (with New Orleans Jazz Band)
EXTD=
EXTT0=
EXTT1=
EXTT2=
EXTT3=
EXTT4=
EXTT5=
EXTT6=
EXTT7=
EXTT8=
EXTT9=
EXTT10=
EXTT11=
EXTT12=
EXTT13=
EXTT14=
EXTT15=
EXTT16=
EXTT17=
EXTT18=
PLAYORDER=
